<!--
  SPDX-License-Identifier: Apache-2.0
  Share icon adapted from Google Material Design Icons:
  https://github.com/google/material-design-icons/blob/master/src/social/share/materialicons/24px.svg
-->
<svg xmlns="http://www.w3.org/2000/svg" width="32" height="32" viewBox="0 0 24 24" role="img" aria-labelledby="title">
  <title id="title">Envshare</title>
  <path fill="#5757D9" d="M18 16.08c-.76 0-1.44.3-1.96.77L8.91 12.7c.05-.23.09-.46.09-.7s-.04-.47-.09-.7l7.05-4.11c.55.51 1.28.82 2.09.82a3 3 0 1 0-2.91-3.7L8 9.81A3 3 0 1 0 8 14.18l7.12 4.16c-.04.21-.07.43-.07.66a2.92 2.92 0 1 0 2.95-2.92Z"/>
</svg>
